<svg width="1200" height="630" viewBox="0 0 1200 630" fill="none" xmlns="http://www.w3.org/2000/svg">
    <g clip-path="url(#clip0_111_45)">
        <rect width="1200" height="630" fill="#000E74" />
        <g filter="url(#filter0_f_111_45)">
            <path
                d="M830.5 -225L886.801 134.383L1115.25 -148.701L984.317 190.683L1323.7 59.75L1040.62 288.199L1400 344.5L1040.62 400.801L1323.7 629.25L984.317 498.317L1115.25 837.701L886.801 554.617L830.5 914L774.199 554.617L545.75 837.701L676.683 498.317L337.299 629.25L620.383 400.801L261 344.5L620.383 288.199L337.299 59.75L676.683 190.683L545.75 -148.701L774.199 134.383L830.5 -225Z"
                fill="#DE4013" />
            <path
                d="M881.367 135.234L883.288 147.494L891.081 137.837L1097.48 -117.926L979.185 188.704L974.719 200.281L986.296 195.815L1292.93 77.5181L1037.16 283.919L1027.51 291.712L1039.77 293.633L1364.46 344.5L1039.77 395.367L1027.51 397.288L1037.16 405.081L1292.93 611.482L986.296 493.185L974.719 488.719L979.185 500.296L1097.48 806.926L891.081 551.163L883.288 541.506L881.367 553.766L830.5 878.464L779.633 553.766L777.712 541.506L769.919 551.163L563.518 806.926L681.815 500.296L686.281 488.719L674.704 493.185L368.074 611.482L623.837 405.081L633.494 397.288L621.234 395.367L296.536 344.5L621.234 293.633L633.494 291.712L623.837 283.919L368.074 77.5181L674.704 195.815L686.281 200.281L681.815 188.704L563.518 -117.926L769.919 137.837L777.712 147.494L779.633 135.234L830.5 -189.464L881.367 135.234Z"
                stroke="#ED7F0E" stroke-width="11" />
        </g>
        <g filter="url(#filter1_d_111_45)">
            <path
                d="M135.84 143.64H172.68V163.32H167.88L144.72 204.84V217.32H150.72V237H105.12V217.32H111.12V204.84L87.24 163.32H82.44V143.64H128.88V163.32H124.68L131.76 181.92H132.96L140.04 163.32H135.84V143.64ZM198.842 238.68C187.482 238.68 178.602 235.72 172.202 229.8C165.802 223.8 162.602 215.08 162.602 203.64C162.602 192.2 165.802 183.52 172.202 177.6C178.602 171.6 187.482 168.6 198.842 168.6C210.362 168.6 219.282 171.64 225.602 177.72C231.922 183.72 235.082 192.36 235.082 203.64C235.082 215.08 231.882 223.8 225.482 229.8C219.082 235.72 210.202 238.68 198.842 238.68ZM198.842 217.32C201.162 217.32 202.882 216.72 204.002 215.52C205.202 214.24 205.802 212.28 205.802 209.64V197.64C205.802 195 205.202 193.08 204.002 191.88C202.882 190.6 201.162 189.96 198.842 189.96C196.522 189.96 194.762 190.6 193.562 191.88C192.442 193.08 191.882 195 191.882 197.64V209.64C191.882 212.28 192.442 214.24 193.562 215.52C194.762 216.72 196.522 217.32 198.842 217.32ZM317.862 217.32V237H284.982V227.64C279.222 235 272.022 238.68 263.382 238.68C256.742 238.68 251.742 236.6 248.382 232.44C245.102 228.28 243.462 222.56 243.462 215.28V189.96H238.182V170.28H271.062V209.64C271.062 212.28 271.622 214.24 272.742 215.52C273.942 216.72 275.702 217.32 278.022 217.32C280.342 217.32 282.062 216.72 283.182 215.52C284.382 214.24 284.982 212.28 284.982 209.64V189.96H278.502V170.28H312.582V217.32H317.862ZM372.408 168.6C374.008 168.6 375.528 168.76 376.968 169.08C378.408 169.4 379.608 169.8 380.568 170.28V193.2C377.288 191.84 373.768 191.16 370.008 191.16C364.968 191.16 361.088 192.48 358.368 195.12C355.648 197.76 354.288 201.68 354.288 206.88V217.32H365.088V237H321.408V217.32H326.688V189.96H321.408V170.28H354.288V179.04C356.528 175.68 359.088 173.12 361.968 171.36C364.848 169.52 368.328 168.6 372.408 168.6ZM106.8 358.68C98.64 358.68 92.48 355.64 88.32 349.56C84.24 343.48 82.2 334.84 82.2 323.64C82.2 312.44 84.24 303.8 88.32 297.72C92.48 291.64 98.64 288.6 106.8 288.6C110.88 288.6 114.48 289.6 117.6 291.6C120.8 293.6 123.4 295.88 125.4 298.44V283.32H118.32V263.64H153V337.32H158.28V357H125.4V348.84C123.4 351.4 120.8 353.68 117.6 355.68C114.48 357.68 110.88 358.68 106.8 358.68ZM118.44 337.32C120.76 337.32 122.48 336.72 123.6 335.52C124.8 334.24 125.4 332.28 125.4 329.64V317.64C125.4 315 124.8 313.08 123.6 311.88C122.48 310.6 120.76 309.96 118.44 309.96C116.12 309.96 114.36 310.6 113.16 311.88C112.04 313.08 111.48 315 111.48 317.64V329.64C111.48 332.28 112.04 334.24 113.16 335.52C114.36 336.72 116.12 337.32 118.44 337.32ZM197.904 358.68C186.544 358.68 177.664 355.72 171.264 349.8C164.864 343.8 161.664 335.08 161.664 323.64C161.664 312.2 164.864 303.52 171.264 297.6C177.664 291.6 186.544 288.6 197.904 288.6C209.184 288.6 217.304 291.56 222.264 297.48C227.304 303.32 229.824 310.6 229.824 319.32V327.96H190.944V328.68C190.944 331.64 191.824 333.84 193.584 335.28C195.344 336.64 198.264 337.32 202.344 337.32C207.224 337.32 211.864 336.96 216.264 336.24C220.664 335.52 224.504 334.6 227.784 333.48V352.68C224.984 354.2 220.864 355.6 215.424 356.88C210.064 358.08 204.224 358.68 197.904 358.68ZM204.864 314.76V313.32C204.864 310.6 204.264 308.64 203.064 307.44C201.944 306.24 200.224 305.64 197.904 305.64C195.584 305.64 193.824 306.28 192.624 307.56C191.504 308.76 190.944 310.68 190.944 313.32V314.76H204.864ZM268.554 385.32C262.794 385.32 257.274 384.92 251.994 384.12C246.794 383.32 242.754 382.4 239.874 381.36V361.68C248.354 363.2 255.954 363.96 262.674 363.96C267.234 363.96 270.514 363.24 272.514 361.8C274.594 360.44 275.634 357.84 275.634 354V348.84C273.634 351.4 271.034 353.68 267.834 355.68C264.714 357.68 261.114 358.68 257.034 358.68C248.874 358.68 242.714 355.64 238.554 349.56C234.474 343.48 232.434 334.84 232.434 323.64C232.434 312.44 234.474 303.8 238.554 297.72C242.714 291.64 248.874 288.6 257.034 288.6C261.114 288.6 264.714 289.6 267.834 291.6C271.034 293.6 273.634 295.88 275.634 298.44V290.28H308.514V309.96H303.234V352.2C303.234 363.8 300.354 372.2 294.594 377.4C288.834 382.68 280.154 385.32 268.554 385.32ZM268.674 337.32C270.994 337.32 272.714 336.72 273.834 335.52C275.034 334.24 275.634 332.28 275.634 329.64V317.64C275.634 315 275.034 313.08 273.834 311.88C272.714 310.6 270.994 309.96 268.674 309.96C266.354 309.96 264.594 310.6 263.394 311.88C262.274 313.08 261.714 315 261.714 317.64V329.64C261.714 332.28 262.274 334.24 263.394 335.52C264.594 336.72 266.354 337.32 268.674 337.32ZM347.67 358.68C336.31 358.68 327.43 355.72 321.03 349.8C314.63 343.8 311.43 335.08 311.43 323.64C311.43 312.2 314.63 303.52 321.03 297.6C327.43 291.6 336.31 288.6 347.67 288.6C358.95 288.6 367.07 291.56 372.03 297.48C377.07 303.32 379.59 310.6 379.59 319.32V327.96H340.71V328.68C340.71 331.64 341.59 333.84 343.35 335.28C345.11 336.64 348.03 337.32 352.11 337.32C356.99 337.32 361.63 336.96 366.03 336.24C370.43 335.52 374.27 334.6 377.55 333.48V352.68C374.75 354.2 370.63 355.6 365.19 356.88C359.83 358.08 353.99 358.68 347.67 358.68ZM354.63 314.76V313.32C354.63 310.6 354.03 308.64 352.83 307.44C351.71 306.24 349.99 305.64 347.67 305.64C345.35 305.64 343.59 306.28 342.39 307.56C341.27 308.76 340.71 310.68 340.71 313.32V314.76H354.63ZM462.84 337.32V357H424.92V337.32H429.96V317.64C429.96 315 429.4 313.08 428.28 311.88C427.16 310.6 425.48 309.96 423.24 309.96C418.44 309.96 416.04 312.52 416.04 317.64V337.32H421.08V357H383.16V337.32H388.44V309.96H383.16V290.28H416.04V299.64C421.8 292.28 429 288.6 437.64 288.6C444.28 288.6 449.24 290.68 452.52 294.84C455.88 299 457.56 304.72 457.56 312V337.32H462.84ZM112.32 478.68C102.24 478.68 92.52 477.08 83.16 473.88V456.12H102.6V457.32C102.6 461.16 105.04 463.08 109.92 463.08C114.24 463.08 116.4 461.6 116.4 458.64C116.4 457.04 115.76 455.84 114.48 455.04C113.28 454.24 111.12 453.56 108 453L102 451.92C89.44 449.68 83.16 442.56 83.16 430.56C83.16 423.6 85.8 418.2 91.08 414.36C96.36 410.52 103.48 408.6 112.44 408.6C122.44 408.6 130.88 410.28 137.76 413.64V430.32H119.52V429.12C119.52 427.52 118.96 426.32 117.84 425.52C116.8 424.64 115.24 424.2 113.16 424.2C109.16 424.2 107.16 425.48 107.16 428.04C107.16 429.4 107.72 430.44 108.84 431.16C109.96 431.88 112 432.56 114.96 433.2L121.8 434.52C128.92 435.88 134 438.4 137.04 442.08C140.08 445.76 141.6 450.48 141.6 456.24C141.6 463.52 139.04 469.08 133.92 472.92C128.88 476.76 121.68 478.68 112.32 478.68ZM181.267 478.68C169.827 478.68 160.907 475.72 154.507 469.8C148.107 463.8 144.907 455.08 144.907 443.64C144.907 432.2 148.107 423.52 154.507 417.6C160.907 411.6 169.787 408.6 181.147 408.6C186.667 408.6 191.947 409.36 196.987 410.88C202.027 412.4 205.947 414.12 208.747 416.04V439.8H188.107V437.64C188.107 435 187.547 433.08 186.427 431.88C185.307 430.6 183.547 429.96 181.147 429.96C176.507 429.96 174.187 432.52 174.187 437.64V447.96C174.187 454.2 177.747 457.32 184.867 457.32C191.507 457.32 199.227 456.6 208.027 455.16V474C205.307 475.2 201.467 476.28 196.507 477.24C191.627 478.2 186.547 478.68 181.267 478.68ZM248.529 478.68C237.169 478.68 228.289 475.72 221.889 469.8C215.489 463.8 212.289 455.08 212.289 443.64C212.289 432.2 215.489 423.52 221.889 417.6C228.289 411.6 237.169 408.6 248.529 408.6C260.049 408.6 268.969 411.64 275.289 417.72C281.609 423.72 284.769 432.36 284.769 443.64C284.769 455.08 281.569 463.8 275.169 469.8C268.769 475.72 259.889 478.68 248.529 478.68ZM248.529 457.32C250.849 457.32 252.569 456.72 253.689 455.52C254.889 454.24 255.489 452.28 255.489 449.64V437.64C255.489 435 254.889 433.08 253.689 431.88C252.569 430.6 250.849 429.96 248.529 429.96C246.209 429.96 244.449 430.6 243.249 431.88C242.129 433.08 241.569 435 241.569 437.64V449.64C241.569 452.28 242.129 454.24 243.249 455.52C244.449 456.72 246.209 457.32 248.529 457.32ZM339.83 408.6C341.43 408.6 342.95 408.76 344.39 409.08C345.83 409.4 347.03 409.8 347.99 410.28V433.2C344.71 431.84 341.19 431.16 337.43 431.16C332.39 431.16 328.51 432.48 325.79 435.12C323.07 437.76 321.71 441.68 321.71 446.88V457.32H332.51V477H288.83V457.32H294.11V429.96H288.83V410.28H321.71V419.04C323.95 415.68 326.51 413.12 329.39 411.36C332.27 409.52 335.75 408.6 339.83 408.6ZM387.631 478.68C376.271 478.68 367.391 475.72 360.991 469.8C354.591 463.8 351.391 455.08 351.391 443.64C351.391 432.2 354.591 423.52 360.991 417.6C367.391 411.6 376.271 408.6 387.631 408.6C398.911 408.6 407.031 411.56 411.991 417.48C417.031 423.32 419.551 430.6 419.551 439.32V447.96H380.671V448.68C380.671 451.64 381.551 453.84 383.311 455.28C385.071 456.64 387.991 457.32 392.071 457.32C396.951 457.32 401.591 456.96 405.991 456.24C410.391 455.52 414.231 454.6 417.511 453.48V472.68C414.711 474.2 410.591 475.6 405.151 476.88C399.791 478.08 393.951 478.68 387.631 478.68ZM394.591 434.76V433.32C394.591 430.6 393.991 428.64 392.791 427.44C391.671 426.24 389.951 425.64 387.631 425.64C385.311 425.64 383.551 426.28 382.351 427.56C381.231 428.76 380.671 430.68 380.671 433.32V434.76H394.591Z"
                fill="#FFEEA3" />
        </g>
    </g>
    <defs>
        <filter id="filter0_f_111_45" x="257" y="-229" width="1147" height="1147" filterUnits="userSpaceOnUse"
            color-interpolation-filters="sRGB">
            <feFlood flood-opacity="0" result="BackgroundImageFix" />
            <feBlend mode="normal" in="SourceGraphic" in2="BackgroundImageFix" result="shape" />
            <feGaussianBlur stdDeviation="2" result="effect1_foregroundBlur_111_45" />
        </filter>
        <filter id="filter1_d_111_45" x="82.2" y="143.64" width="393.37" height="345.77" filterUnits="userSpaceOnUse"
            color-interpolation-filters="sRGB">
            <feFlood flood-opacity="0" result="BackgroundImageFix" />
            <feColorMatrix in="SourceAlpha" type="matrix" values="0 0 0 0 0 0 0 0 0 0 0 0 0 0 0 0 0 0 127 0"
                result="hardAlpha" />
            <feOffset dx="12.73" dy="10.73" />
            <feComposite in2="hardAlpha" operator="out" />
            <feColorMatrix type="matrix" values="0 0 0 0 0.117647 0 0 0 0 0.117647 0 0 0 0 0.117647 0 0 0 1 0" />
            <feBlend mode="normal" in2="BackgroundImageFix" result="effect1_dropShadow_111_45" />
            <feBlend mode="normal" in="SourceGraphic" in2="effect1_dropShadow_111_45" result="shape" />
        </filter>
        <clipPath id="clip0_111_45">
            <rect width="1200" height="630" fill="white" />
        </clipPath>
    </defs>
</svg>