<?xml version="1.0" encoding="UTF-8"?>
<svg version="1.1" xmlns="http://www.w3.org/2000/svg" width="636" height="341">
<path d="M0 0 C209.88 0 419.76 0 636 0 C636 112.53 636 225.06 636 341 C426.12 341 216.24 341 0 341 C0 228.47 0 115.94 0 0 Z " fill="#000E73" transform="translate(0,0)"/>
<path d="M0 0 C2.03153992 -0.00542853 4.06307589 -0.01255527 6.09460449 -0.02124023 C11.58222714 -0.03938947 17.06954712 -0.03244081 22.55717468 -0.01972389 C28.31709572 -0.00955258 34.07699193 -0.01900101 39.83691406 -0.02526855 C49.50720848 -0.03253295 59.17738045 -0.02298896 68.84765625 -0.00390625 C80.00629108 0.01786007 91.16463351 0.01080785 102.32326126 -0.01121187 C111.92703366 -0.02940029 121.53071835 -0.03190737 131.13450241 -0.0214572 C136.86026549 -0.01524119 142.5858914 -0.0143344 148.31164551 -0.02760315 C153.6962697 -0.03921116 159.08051917 -0.03104569 164.46510315 -0.00802612 C166.43383667 -0.00276542 168.40260206 -0.00420723 170.37132263 -0.01307678 C187.55543613 -0.08332063 201.90434598 2.83405184 215.08203125 14.77148438 C228.3638117 28.80684102 231.03917684 44.65556775 231.02490234 63.20996094 C231.0308974 64.77491066 231.03770516 66.33985744 231.04525757 67.90480042 C231.06282562 72.13023615 231.06760905 76.35559072 231.06888914 80.58105946 C231.07031655 83.22821952 231.07459727 85.87535934 231.07988358 88.52251434 C231.09835358 97.77820634 231.10655801 107.03384097 231.10498047 116.28955078 C231.10377996 124.88398921 231.12487224 133.47817617 231.1564678 142.07255101 C231.1827159 149.47929147 231.1933442 156.88595022 231.19206965 164.29273677 C231.19156251 168.70407016 231.19710715 173.11517979 231.21842575 177.52646637 C231.23795274 181.67990744 231.23783518 185.83291459 231.22339249 189.98637199 C231.22132106 191.49953542 231.22590428 193.01272708 231.2381134 194.52584267 C231.37540473 212.73896695 226.7223959 228.56064643 213.7734375 241.74414062 C202.69575322 252.3192728 189.09032483 255.67522896 174.26031494 255.65802002 C173.44523586 255.66099114 172.63015678 255.66396226 171.79037833 255.66702342 C169.0793171 255.6756438 166.36830037 255.67721297 163.65722656 255.67871094 C161.70509753 255.68334378 159.75296939 255.68836906 157.80084229 255.6937561 C152.51142311 255.70683583 147.22201661 255.71331621 141.93258381 255.71776676 C138.62379348 255.7207042 135.31500656 255.72481022 132.00621796 255.72927094 C121.64145558 255.7429332 111.27670107 255.7526065 100.91193032 255.75647283 C88.96977367 255.76095283 77.02773152 255.77850349 65.08560967 255.80747342 C55.83862585 255.82912266 46.59167417 255.83917881 37.34466529 255.84051394 C31.82899804 255.84155949 26.3134386 255.84741425 20.79779816 255.86533356 C15.60701131 255.88187072 10.41641271 255.8839424 5.22560883 255.87519455 C3.32781976 255.87442724 1.43002034 255.87872623 -0.46774292 255.8886528 C-13.19824828 255.95130151 -25.20573998 255.80534622 -36.203125 248.58007812 C-37.24339844 247.91105469 -38.28367187 247.24203125 -39.35546875 246.55273438 C-52.04969838 237.67529325 -58.50256615 225.34687937 -62.265625 210.51757812 C-62.52289391 207.10007286 -62.52289391 207.10007286 -62.53305054 203.46127319 C-62.53758165 202.78659488 -62.54211276 202.11191657 -62.54678118 201.41679347 C-62.55935723 199.17476368 -62.55780925 196.93297894 -62.55615234 194.69091797 C-62.56214202 193.07552786 -62.56894858 191.46014061 -62.57650757 189.84475708 C-62.59413424 185.46838984 -62.59886166 181.09210089 -62.60013914 176.71570158 C-62.60156367 173.97626787 -62.60583907 171.23685388 -62.61113358 168.49742508 C-62.62962581 158.92519118 -62.63780557 149.35301289 -62.63623047 139.78076172 C-62.63503065 130.8836056 -62.65610361 121.98669269 -62.6877178 113.08959806 C-62.71395121 105.43155612 -62.72459475 97.77359324 -62.72331965 90.11550677 C-62.72281191 85.55046254 -62.72838998 80.98563436 -62.74967575 76.42063522 C-62.76917654 72.12114352 -62.76910257 67.82207126 -62.75464249 63.52256393 C-62.75256758 61.95415629 -62.75717564 60.38572158 -62.7693634 58.81735992 C-62.88846159 42.41459249 -59.03651183 27.48143294 -47.515625 15.20507812 C-33.23847602 1.99871532 -18.61542783 -0.08386694 0 0 Z " fill="#FE610A" transform="translate(377.265625,38.482421875)"/>
<path d="M0 0 C209.88 0 419.76 0 636 0 C636 112.53 636 225.06 636 341 C426.12 341 216.24 341 0 341 C0 338.36 0 335.72 0 333 C208.23 333 416.46 333 631 333 C631 223.44 631 113.88 631 1 C422.77 1 214.54 1 0 1 C0 0.67 0 0.34 0 0 Z " fill="#2F2F33" transform="translate(0,0)"/>
<path d="M0 0 C5.01705721 -0.07442006 10.03378972 -0.12872908 15.05126953 -0.16479492 C16.75640463 -0.17983738 18.46150132 -0.20027653 20.16650391 -0.22631836 C22.62412012 -0.26290284 25.08122269 -0.27977173 27.5390625 -0.29296875 C28.29555084 -0.30845261 29.05203918 -0.32393646 29.83145142 -0.33988953 C34.62557461 -0.34139768 37.83092 0.3870398 42 3 C45.30079948 6.56138891 46.2750859 9.31718366 46.4375 14.0625 C46.22342639 19.33505376 44.72102519 22.27897481 41 26 C41.639375 26.309375 42.27875 26.61875 42.9375 26.9375 C45.77843819 29.77843819 45.56251144 32.13969511 45.7265625 36.0390625 C45.81679687 36.68617188 45.90703125 37.33328125 46 38 C46.99 38.495 46.99 38.495 48 39 C48 42.3 48 45.6 48 49 C41.4 49 34.8 49 28 49 C27.505 39.595 27.505 39.595 27 30 C25.02 29.34 23.04 28.68 21 28 C21 31.63 21 35.26 21 39 C22.32 39 23.64 39 25 39 C25 42.3 25 45.6 25 49 C16.75 49 8.5 49 0 49 C0 45.37 0 41.74 0 38 C0.99 38 1.98 38 3 38 C3 28.76 3 19.52 3 10 C2.01 10 1.02 10 0 10 C0 6.7 0 3.4 0 0 Z " fill="#FAEAA1" transform="translate(43,203)"/>
<path d="M0 0 C0.85142578 -0.01160156 1.70285156 -0.02320313 2.58007812 -0.03515625 C8.6838517 -0.00726391 13.48817762 1.19669478 19.1875 3.375 C19.1875 7.335 19.1875 11.295 19.1875 15.375 C14.8975 15.375 10.6075 15.375 6.1875 15.375 C5.8575 14.715 5.5275 14.055 5.1875 13.375 C2.15815509 12.71727572 2.15815509 12.71727572 -0.8125 12.375 C-0.25013352 14.35687964 -0.25013352 14.35687964 1.1875 16.375 C4.10226457 17.77181557 4.10226457 17.77181557 7.5 18.8125 C14.34801625 21.26901797 17.17389668 23.35459502 21.1875 29.375 C21.91882495 34.23916128 21.8197663 38.90776157 19.5 43.3125 C16.30064185 47.54948782 13.30022749 49.30745539 8.1875 50.375 C5.12762777 50.59125181 2.06680911 50.56012447 -1 50.5625 C-1.81275391 50.57474609 -2.62550781 50.58699219 -3.46289062 50.59960938 C-9.19768179 50.61329623 -14.25350722 49.78849264 -19.8125 48.375 C-19.8125 44.085 -19.8125 39.795 -19.8125 35.375 C-15.1925 35.375 -10.5725 35.375 -5.8125 35.375 C-5.4825 36.035 -5.1525 36.695 -4.8125 37.375 C-2.8325 37.375 -0.8525 37.375 1.1875 37.375 C0.8575 36.385 0.5275 35.395 0.1875 34.375 C-2.65931567 33.04035573 -2.65931567 33.04035573 -6.0625 31.9375 C-11.40484014 30.10635853 -15.78107894 28.28670352 -19.1015625 23.52734375 C-20.06436539 20.61248444 -20.15204717 18.00416962 -20.1875 14.9375 C-20.21585938 13.82503906 -20.24421875 12.71257812 -20.2734375 11.56640625 C-19.70427439 7.62567519 -18.65834906 6.1310299 -15.8125 3.375 C-10.681631 -0.10638963 -5.9836812 -0.08043784 0 0 Z " fill="#FBEAA1" transform="translate(62.8125,138.625)"/>
<path d="M0 0 C8.25 0 16.5 0 25 0 C25 5 25 10 25 15 C25.30404678 16.67225729 25.63128912 18.34080104 26 20 C26.66 20 27.32 20 28 20 C28.12375 19.278125 28.2475 18.55625 28.375 17.8125 C28.9904931 15.04278106 29.88444374 12.6029646 31 10 C30.34 10 29.68 10 29 10 C29 6.7 29 3.4 29 0 C35.27 0 41.54 0 48 0 C48 3.63 48 7.26 48 11 C47.01 11 46.02 11 45 11 C44.76410156 11.66257812 44.52820313 12.32515625 44.28515625 13.0078125 C42.3342771 17.54998099 39.74257684 21.71416855 37.18945312 25.94140625 C34.60529584 30.38226574 33.38217214 33.86414279 33 39 C33.99 39 34.98 39 36 39 C36 42.3 36 45.6 36 49 C28.41 49 20.82 49 13 49 C13 45.7 13 42.4 13 39 C13.99 39 14.98 39 16 39 C14.79599317 32.01814428 12.6485161 27.0187362 8.875 21.0625 C7.95210604 19.57646276 7.03264896 18.08828372 6.1171875 16.59765625 C5.71097168 15.95320557 5.30475586 15.30875488 4.88623047 14.64477539 C4 13 4 13 4 11 C2.68 11 1.36 11 0 11 C0 7.37 0 3.74 0 0 Z " fill="#F9E9A1" transform="translate(42,76)"/>
<path d="M0 0 C5.61 0 11.22 0 17 0 C17 8.25 17 16.5 17 25 C17.66 25 18.32 25 19 25 C19.226875 24.29875 19.45375 23.5975 19.6875 22.875 C22.86928629 15.90537289 22.86928629 15.90537289 26 14 C30.37662659 13.48479032 34.6141113 13.65323867 39 14 C39 17.3 39 20.6 39 24 C38.01 24 37.02 24 36 24 C33.88791026 27.81575438 33.88791026 27.81575438 33 32 C35.13381449 35.2769294 36.25018012 36.75006004 40 38 C40 41.63 40 45.26 40 49 C34.72 49 29.44 49 24 49 C19 39.25 19 39.25 19 37 C18.34 37 17.68 37 17 37 C17 40.96 17 44.92 17 49 C11.06 49 5.12 49 -1 49 C-1 45.37 -1 41.74 -1 38 C-0.01 38 0.98 38 2 38 C2 28.76 2 19.52 2 10 C1.34 10 0.68 10 0 10 C0 6.7 0 3.4 0 0 Z " fill="#F9E8A0" transform="translate(177,203)"/>
<path d="M0 0 C3.56760738 1.94327055 5.69295606 4.07886819 7 8 C7.08021999 9.40824893 7.10765977 10.81997231 7.09765625 12.23046875 C7.09443359 13.03291016 7.09121094 13.83535156 7.08789062 14.66210938 C7.07532227 15.91217773 7.07532227 15.91217773 7.0625 17.1875 C7.05798828 18.03248047 7.05347656 18.87746094 7.04882812 19.74804688 C7.03705403 21.83206155 7.0191189 23.91603977 7 26 C7.66 26 8.32 26 9 26 C9 29.3 9 32.6 9 36 C2.4 36 -4.2 36 -11 36 C-11 32.37 -11 28.74 -11 25 C-10.01 25 -9.02 25 -8 25 C-8.33 21.04 -8.66 17.08 -9 13 C-11.475 12.505 -11.475 12.505 -14 12 C-14.33 16.62 -14.66 21.24 -15 26 C-14.34 26 -13.68 26 -13 26 C-13 29.3 -13 32.6 -13 36 C-19.6 36 -26.2 36 -33 36 C-33 32.37 -33 28.74 -33 25 C-32.01 25 -31.02 25 -30 25 C-30 20.38 -30 15.76 -30 11 C-30.99 11 -31.98 11 -33 11 C-33 7.7 -33 4.4 -33 1 C-27.06 1 -21.12 1 -15 1 C-14.67 1.99 -14.34 2.98 -14 4 C-13.360625 3.34 -12.72125 2.68 -12.0625 2 C-7.97566183 -0.66895554 -4.76121305 -0.98738689 0 0 Z " fill="#F7E79F" transform="translate(165,216)"/>
<path d="M0 0 C5.94 0 11.88 0 18 0 C18.33 7.59 18.66 15.18 19 23 C20.65 23.33 22.3 23.66 24 24 C24.33 19.71 24.66 15.42 25 11 C24.01 11 23.02 11 22 11 C22 7.37 22 3.74 22 0 C27.94 0 33.88 0 40 0 C40 8.25 40 16.5 40 25 C40.99 25 41.98 25 43 25 C43 28.63 43 32.26 43 36 C37.06 36 31.12 36 25 36 C24.67 35.01 24.34 34.02 24 33 C23.195625 33.495 22.39125 33.99 21.5625 34.5 C17.21876717 36.32894014 13.65234182 36.80640592 9 36 C5.96133851 33.81839688 4.31269104 31.47046216 3 28 C2.75757219 25.07894965 2.81186592 22.17844984 2.875 19.25 C2.88402344 18.45722656 2.89304687 17.66445312 2.90234375 16.84765625 C2.92582988 14.89830719 2.96169863 12.94911425 3 11 C2.01 11 1.02 11 0 11 C0 7.37 0 3.74 0 0 Z " fill="#F4E49E" transform="translate(124,90)"/>
<path d="M0 0 C3.68928037 3.2013709 5.52285353 6.2762694 6.1796875 11.1171875 C6.16035156 12.385625 6.14101562 13.6540625 6.12109375 14.9609375 C6.11980469 16.229375 6.11851563 17.4978125 6.1171875 18.8046875 C5.57253512 23.39743193 4.28101982 26.69059417 1.16796875 30.140625 C-5.33251885 34.62069078 -12.68069451 34.45906975 -20.31640625 33.4609375 C-25.87686422 31.1451703 -28.65206592 28.45675009 -31.56640625 23.2109375 C-33.23922309 17.07727575 -32.83516266 11.11388517 -30.3671875 5.25390625 C-28.32233464 1.76473353 -25.40218192 -0.83324687 -21.515625 -2.1484375 C-14.16699167 -3.45370097 -6.69414096 -3.48870598 0 0 Z " fill="#FAE9A1" transform="translate(117.31640625,155.5390625)"/>
<path d="M0 0 C0.70382813 -0.02900391 1.40765625 -0.05800781 2.1328125 -0.08789062 C7.3128054 -0.15047418 10.08905524 0.99753046 14.25 4.3125 C15.11625 4.993125 15.11625 4.993125 16 5.6875 C19.91616503 10.77851454 19.8625806 17.18669403 19.25 23.3125 C17.51431472 29.19454456 15.15164069 31.91136156 10.25 35.3125 C3.96551584 37.47578649 -4.01480036 37.19167131 -10.25 35.1875 C-14.46230362 32.02827228 -17.80838818 28.66431414 -18.75 23.3125 C-19.22365987 17.7372904 -19.5234054 12.91660009 -17.0625 7.8125 C-11.56197231 1.86598358 -7.95717301 0.10695125 0 0 Z " fill="#FCEBA1" transform="translate(103.75,89.6875)"/>
<path d="M0 0 C4.28244648 4.56794292 4.13023826 9.22132243 4.0625 15.1875 C4.05798828 15.93708984 4.05347656 16.68667969 4.04882812 17.45898438 C4.03706354 19.30602383 4.01912865 21.15302213 4 23 C4.66 23 5.32 23 6 23 C6 26.3 6 29.6 6 33 C0.72 33 -4.56 33 -10 33 C-10.33 32.01 -10.66 31.02 -11 30 C-11.66 30.66 -12.32 31.32 -13 32 C-17.10095984 34.73397322 -19.1266034 34.46413301 -24 34 C-27.4203866 32.82986774 -27.91540482 32.12689277 -30 29 C-30.80520473 23.99925486 -30.8421728 20.18894983 -27.875 16 C-22.02865887 11.93298008 -16.892051 11.72431796 -10 12 C-10.66 11.01 -11.32 10.02 -12 9 C-14.46091416 8.5960636 -14.46091416 8.5960636 -17.25 8.75 C-18.23097656 8.77578125 -19.21195313 8.8015625 -20.22265625 8.828125 C-23.20279162 9.01254969 -26.08040921 9.36873713 -29 10 C-29.02687279 8.18757948 -29.04633715 6.37504767 -29.0625 4.5625 C-29.07410156 3.55316406 -29.08570312 2.54382813 -29.09765625 1.50390625 C-29 -1 -29 -1 -28 -2 C-19.03693466 -3.87599042 -8.01108511 -4.98467518 0 0 Z " fill="#F9E8A0" transform="translate(124,219)"/>
<path d="M0 0 C0.84240234 -0.020625 1.68480469 -0.04125 2.55273438 -0.0625 C8.54281185 -0.09996726 12.74942871 0.81849272 17.5 4.75 C20.45318184 8.48033495 19.80099489 12.94602721 19.75 17.4375 C19.74548828 18.18708984 19.74097656 18.93667969 19.73632812 19.70898438 C19.72456354 21.55602383 19.70662865 23.40302213 19.6875 25.25 C20.6775 25.25 21.6675 25.25 22.6875 25.25 C22.6875 28.88 22.6875 32.51 22.6875 36.25 C17.0775 36.25 11.4675 36.25 5.6875 36.25 C5.3575 35.26 5.0275 34.27 4.6875 33.25 C4.12933594 33.7346875 3.57117188 34.219375 2.99609375 34.71875 C-0.88279026 37.29154617 -4.82537806 37.00389448 -9.3125 36.25 C-12.4375 34.25 -12.4375 34.25 -14.3125 31.25 C-14.93216758 27.34609426 -15.23019743 24.95429523 -13.35546875 21.47265625 C-10.78883372 18.14010473 -8.39100861 16.15633525 -4.3125 15.25 C-0.97149612 15.10607983 2.34610649 15.13321343 5.6875 15.25 C5.0275 14.26 4.3675 13.27 3.6875 12.25 C1.45648284 11.84656868 1.45648284 11.84656868 -1.0625 12 C-2.39667969 12.03867188 -2.39667969 12.03867188 -3.7578125 12.078125 C-6.65793153 12.27324004 -9.4678642 12.65112931 -12.3125 13.25 C-12.3125 9.29 -12.3125 5.33 -12.3125 1.25 C-8.18830148 -0.12473284 -4.31998491 0.02608293 0 0 Z " fill="#F9E8A0" transform="translate(197.3125,152.75)"/>
<path d="M0 0 C0 4.29 0 8.58 0 13 C-3.63 13 -7.26 13 -11 13 C-11.33 11.68 -11.66 10.36 -12 9 C-13.65 9 -15.3 9 -17 9 C-17.02687279 10.81242052 -17.04633715 12.62495233 -17.0625 14.4375 C-17.07410156 15.44683594 -17.08570313 16.45617187 -17.09765625 17.49609375 C-17.28612676 19.94021067 -17.28612676 19.94021067 -16 21 C-13.47403741 21.23653523 -10.96892793 21.42173692 -8.4375 21.5625 C-7.37112305 21.62727539 -7.37112305 21.62727539 -6.28320312 21.69335938 C-4.52238088 21.79971777 -2.7612168 21.90038846 -1 22 C-1 24.97 -1 27.94 -1 31 C-5.29046823 33.09923494 -9.24605512 33.33428015 -13.9375 33.3125 C-14.97293945 33.33666992 -14.97293945 33.33666992 -16.02929688 33.36132812 C-20.77505731 33.36582648 -23.97124884 32.48290442 -28 30 C-32.36719089 25.51149825 -33.81369545 21.31017643 -34.3125 15.125 C-34.14758785 10.05152632 -33.02823624 5.29525893 -29.60546875 1.421875 C-21.53741261 -5.68618458 -9.16543338 -4.31314512 0 0 Z " fill="#FAE9A1" transform="translate(159,156)"/>
<path d="M0 0 C5.61 0 11.22 0 17 0 C17 12.87 17 25.74 17 39 C17.99 39 18.98 39 20 39 C20 42.63 20 46.26 20 50 C13.4 50 6.8 50 0 50 C0 46.37 0 42.74 0 39 C0.66 39 1.32 39 2 39 C2 29.76 2 20.52 2 11 C1.34 11 0.68 11 0 11 C0 7.37 0 3.74 0 0 Z " fill="#F5E5A0" transform="translate(222,139)"/>
<path d="M0 0 C5.94 0 11.88 0 18 0 C18.33 0.99 18.66 1.98 19 3 C19.38800781 2.50886719 19.77601563 2.01773438 20.17578125 1.51171875 C22.61211696 -0.50725753 24.06930672 -0.30898805 27.1875 -0.1875 C28.775625 -0.125625 30.36375 -0.06375 32 0 C32 3.96 32 7.92 32 12 C30.5975 11.9175 29.195 11.835 27.75 11.75 C24.61809519 11.77462189 23.26122367 11.84979639 20.5 13.4375 C18.33194429 17.14126183 18.18085338 20.76803097 18 25 C19.65 25 21.3 25 23 25 C23 28.3 23 31.6 23 35 C15.74 35 8.48 35 1 35 C1 31.7 1 28.4 1 25 C1.66 25 2.32 25 3 25 C3 20.38 3 15.76 3 11 C2.01 11 1.02 11 0 11 C0 7.37 0 3.74 0 0 Z " fill="#F6E6A0" transform="translate(168,90)"/>
<path d="M0 0 C1.66611905 -0.042721 3.33382885 -0.04063832 5 0 C6 1 6 1 6.09765625 3.72265625 C6.08605469 4.82480469 6.07445312 5.92695312 6.0625 7.0625 C6.05347656 8.16722656 6.04445313 9.27195312 6.03515625 10.41015625 C6.02355469 11.26480469 6.01195312 12.11945313 6 13 C5.38511719 12.96519531 4.77023438 12.93039063 4.13671875 12.89453125 C2.92435547 12.85392578 2.92435547 12.85392578 1.6875 12.8125 C0.88699219 12.77769531 0.08648437 12.74289063 -0.73828125 12.70703125 C-3.03503165 12.83185138 -3.03503165 12.83185138 -4.75 14.1875 C-6.38344378 16.55599348 -6.50209901 18.3323248 -6.6875 21.1875 C-6.75324219 22.08855469 -6.81898438 22.98960938 -6.88671875 23.91796875 C-6.92410156 24.60503906 -6.96148437 25.29210937 -7 26 C-5.35 26 -3.7 26 -2 26 C-2 29.3 -2 32.6 -2 36 C-9.59 36 -17.18 36 -25 36 C-25 34.35 -25 32.7 -25 31 C-25.66 31 -26.32 31 -27 31 C-27 32.65 -27 34.3 -27 36 C-32.61 36 -38.22 36 -44 36 C-44.33 35.01 -44.66 34.02 -45 33 C-45.804375 33.66 -46.60875 34.32 -47.4375 35 C-50.86136826 37.25553407 -53.81264566 37.69002837 -57.875 37.5390625 C-61.65148304 36.58105761 -62.94343334 34.18436128 -65 31 C-64.32453125 30.87882812 -63.6490625 30.75765625 -62.953125 30.6328125 C-62.06109375 30.46523437 -61.1690625 30.29765625 -60.25 30.125 C-58.92742187 29.88136719 -58.92742187 29.88136719 -57.578125 29.6328125 C-55.13052256 29.03203736 -53.19400143 28.22002883 -51 27 C-51 28.32 -51 29.64 -51 31 C-45.06 31 -39.12 31 -33 31 C-33 27.37 -33 23.74 -33 20 C-33.99 20 -34.98 20 -36 20 C-36 13.73 -36 7.46 -36 1 C-34.68 1 -33.36 1 -32 1 C-32 2.65 -32 4.3 -32 6 C-31.01 6 -30.02 6 -29 6 C-29 10.62 -29 15.24 -29 20 C-29.66 20 -30.32 20 -31 20 C-31 23.3 -31 26.6 -31 30 C-23.74 30 -16.48 30 -9 30 C-9 26.7 -9 23.4 -9 20 C-10.65 20 -12.3 20 -14 20 C-14.46702927 15.23630144 -14.64062965 12.03327363 -12.0625 7.875 C-7.8088511 5.27072517 -4.72821098 5.95958756 0 7 C0 4.69 0 2.38 0 0 Z " fill="#34322C" transform="translate(200,95)"/>
<path d="M0 0 C5.61 0 11.22 0 17 0 C17 7.92 17 15.84 17 24 C17.99 24 18.98 24 20 24 C20 27.63 20 31.26 20 35 C13.4 35 6.8 35 0 35 C0 31.37 0 27.74 0 24 C0.99 24 1.98 24 3 24 C3 19.38 3 14.76 3 10 C2.01 10 1.02 10 0 10 C0 6.7 0 3.4 0 0 Z " fill="#FBEAA1" transform="translate(161,154)"/>
<path d="M0 0 C4.875 0.875 4.875 0.875 6 2 C6.12669642 4.05955348 6.17584229 6.12408618 6.1875 8.1875 C6.20167969 9.31542969 6.21585938 10.44335938 6.23046875 11.60546875 C5.99470439 15.07799802 5.15926643 17.73704544 4 21 C3.2606772 26.00332409 3.64731208 29.81359933 6.125 34.25 C8.04790146 37.69890511 8.04790146 37.69890511 7.5625 40.75 C4.26397356 45.49987807 0.50057061 47.5398943 -5 49 C-8.12972538 49.30217298 -11.23249514 49.32485261 -14.375 49.3125 C-15.18710938 49.32861328 -15.99921875 49.34472656 -16.8359375 49.36132812 C-22.52632163 49.36588773 -26.88000389 48.55999805 -32 46 C-32.71630859 43.8918457 -32.71630859 43.8918457 -33 42 C-32.0553186 42.02356567 -32.0553186 42.02356567 -31.09155273 42.04760742 C-28.20696175 42.11040232 -25.32251514 42.14913058 -22.4375 42.1875 C-20.9515332 42.22520508 -20.9515332 42.22520508 -19.43554688 42.26367188 C-12.30537294 42.33473673 -7.24472457 41.73239964 -1.625 37 C1.91973269 32.63725207 1.4540692 27.34602229 1 22 C-0.56017194 17.77835828 -2.94833882 16.06475082 -6.88671875 13.96484375 C-10.16380541 12.46865076 -13.54993487 11.27917612 -16.9609375 10.125 C-19 9 -19 9 -19.7890625 6.875 C-19.85867187 6.25625 -19.92828125 5.6375 -20 5 C-18.02 5 -16.04 5 -14 5 C-13.67 5.99 -13.34 6.98 -13 8 C-8.71 8 -4.42 8 0 8 C0 5.36 0 2.72 0 0 Z " fill="#252524" transform="translate(82,146)"/>
<path d="M0 0 C0 0.66 0 1.32 0 2 C-0.99 2 -1.98 2 -3 2 C-3 2.66 -3 3.32 -3 4 C-13.35902205 9.72147877 -26.90810737 8.28593307 -38.37939453 8.25878906 C-40.31565482 8.26150364 -42.25191407 8.26506718 -44.18817139 8.26940918 C-49.41526429 8.27847874 -54.6422777 8.27501178 -59.86937189 8.26865101 C-65.35528931 8.26356422 -70.84120022 8.26828975 -76.32711792 8.27142334 C-85.53498549 8.27505458 -94.74282091 8.27028536 -103.95068359 8.26074219 C-114.57987388 8.2498528 -125.20898746 8.25339014 -135.83817589 8.264395 C-144.9850019 8.27348416 -154.13180488 8.27474538 -163.27863395 8.26951766 C-168.73266537 8.26640775 -174.18666078 8.26596178 -179.64068985 8.27259064 C-184.76748225 8.27838741 -189.89417613 8.27432463 -195.02095795 8.26280212 C-196.89700787 8.26016827 -198.77306616 8.26089873 -200.6491127 8.26532745 C-212.90778685 8.29158819 -223.51914917 7.67738367 -235 3 C-235 2.34 -235 1.68 -235 1 C-234.33613281 1.20496094 -233.67226563 1.40992188 -232.98828125 1.62109375 C-232.10527344 1.89050781 -231.22226562 2.15992188 -230.3125 2.4375 C-229.44238281 2.70433594 -228.57226562 2.97117187 -227.67578125 3.24609375 C-222.35255379 4.7459228 -217.39952474 5.14501727 -211.87997437 5.13371277 C-210.66014231 5.1371111 -210.66014231 5.1371111 -209.41566718 5.14057809 C-206.69294984 5.14690387 -203.97028246 5.14608963 -201.24755859 5.14526367 C-199.29424983 5.14825613 -197.34094167 5.15165886 -195.38763428 5.15544128 C-190.08157271 5.16427866 -184.77552727 5.16661935 -179.46945906 5.16725707 C-176.15214972 5.16796795 -172.83484448 5.17010305 -169.51753616 5.17275429 C-157.93763214 5.18200825 -146.35773963 5.18608929 -134.77783203 5.18530273 C-123.99601094 5.18470257 -113.21423999 5.19524222 -102.43243158 5.2110464 C-93.1676896 5.2241412 -83.90296396 5.22948579 -74.6382128 5.22884732 C-69.10858691 5.22859282 -63.57900553 5.23141744 -58.04938889 5.24202538 C-52.84390015 5.25173848 -47.63849816 5.25176354 -42.43300629 5.24450874 C-40.52835335 5.24346675 -38.62369492 5.24580277 -36.71905136 5.2518692 C-24.19613257 5.28915368 -11.47920312 0 0 0 Z " fill="#010B5B" transform="translate(580,288)"/>
<path d="M0 0 C0.66 0 1.32 0 2 0 C2 1.32 2 2.64 2 4 C2.99 4 3.98 4 5 4 C5 8.62 5 13.24 5 18 C4.01 18 3.02 18 2 18 C2 21.63 2 25.26 2 29 C3.32 29 4.64 29 6 29 C5.67 30.65 5.34 32.3 5 34 C-4.73077017 35.81037585 -13.90962577 36.63830291 -22.48828125 31.09375 C-22.98714844 30.7328125 -23.48601562 30.371875 -24 30 C-24 29.34 -24 28.68 -24 28 C-22.12054688 28.01740234 -22.12054688 28.01740234 -20.203125 28.03515625 C-18.55208483 28.04453716 -16.90104304 28.05363704 -15.25 28.0625 C-14.425 28.07087891 -13.6 28.07925781 -12.75 28.08789062 C-11.55117187 28.09272461 -11.55117187 28.09272461 -10.328125 28.09765625 C-9.22839355 28.10551147 -9.22839355 28.10551147 -8.10644531 28.11352539 C-5.65489786 28.04828993 -5.65489786 28.04828993 -2 27 C-1.67 24.03 -1.34 21.06 -1 18 C-2.05960938 18.02320313 -3.11921875 18.04640625 -4.2109375 18.0703125 C-5.5989513 18.08906944 -6.9869727 18.10726972 -8.375 18.125 C-9.42300781 18.15013672 -9.42300781 18.15013672 -10.4921875 18.17578125 C-12.32897486 18.19344267 -14.16601963 18.10303261 -16 18 C-18 16 -18 16 -18.23046875 13.43359375 C-18.20919922 11.95052734 -18.20919922 11.95052734 -18.1875 10.4375 C-18.18105469 9.44621094 -18.17460937 8.45492187 -18.16796875 7.43359375 C-18 5 -18 5 -17 4 C-15.33382885 3.95936168 -13.66611905 3.957279 -12 4 C-11.67 5.65 -11.34 7.3 -11 9 C-7.37 9 -3.74 9 0 9 C0 6.03 0 3.06 0 0 Z " fill="#252425" transform="translate(159,160)"/>
<path d="M0 0 C2.31 0 4.62 0 7 0 C7 3.63 7 7.26 7 11 C5.35 11 3.7 11 2 11 C2 11.99 2 12.98 2 14 C3.65 14 5.3 14 7 14 C7 16.31 7 18.62 7 21 C7.94875 20.67 8.8975 20.34 9.875 20 C14.55447256 18.6355542 19.16823759 18.82500659 24 19 C24.66 20.32 25.32 21.64 26 23 C25.11957031 23.09796875 24.23914063 23.1959375 23.33203125 23.296875 C22.17058594 23.44640625 21.00914062 23.5959375 19.8125 23.75 C18.66394531 23.88921875 17.51539063 24.0284375 16.33203125 24.171875 C12.61217183 25.09638871 10.74686834 26.36863069 8 29 C6.40779591 32.18440818 6.46744892 35.54187613 7 39 C8.29233607 40.37310707 9.62437146 41.71034824 11 43 C11 44.98 11 46.96 11 49 C4.4 49 -2.2 49 -9 49 C-9 47.35 -9 45.7 -9 44 C-4.71 44 -0.42 44 4 44 C4 40.37 4 36.74 4 33 C3.01 33 2.02 33 1 33 C1 25.08 1 17.16 1 9 C-4.61 9 -10.22 9 -16 9 C-16 8.67 -16 8.34 -16 8 C-12.7 8 -9.4 8 -6 8 C-6 7.01 -6 6.02 -6 5 C-4.02 5 -2.04 5 0 5 C0 3.35 0 1.7 0 0 Z " fill="#383632" transform="translate(177,145)"/>
<path d="M0 0 C3.37217015 1.39538075 5.22960037 2.77710532 7 6 C7.29296875 9.234375 7.29296875 9.234375 7.1875 12.75 C7.16042969 13.92046875 7.13335937 15.0909375 7.10546875 16.296875 C7.07066406 17.18890625 7.03585938 18.0809375 7 19 C7.86882812 18.67257813 8.73765625 18.34515625 9.6328125 18.0078125 C12.94411958 17.01672523 15.44267087 16.79128466 18.875 16.875 C19.84179688 16.89304688 20.80859375 16.91109375 21.8046875 16.9296875 C22.89136719 16.96449219 22.89136719 16.96449219 24 17 C24.66 18.32 25.32 19.64 26 21 C25.19175781 21.10957031 24.38351563 21.21914062 23.55078125 21.33203125 C22.48214844 21.49058594 21.41351563 21.64914063 20.3125 21.8125 C19.25675781 21.96332031 18.20101562 22.11414063 17.11328125 22.26953125 C12.88646184 23.2612693 10.05547025 24.94452975 7 28 C6.71872377 30.33706139 6.71872377 30.33706139 6.8125 32.9375 C6.81894531 33.81277344 6.82539062 34.68804687 6.83203125 35.58984375 C6.90930757 38.1437675 6.90930757 38.1437675 8 41 C8.66 41 9.32 41 10 41 C10 42.98 10 44.96 10 47 C3.4 47 -3.2 47 -10 47 C-10 45.35 -10 43.7 -10 42 C-5.71 42 -1.42 42 3 42 C3 38.7 3 35.4 3 32 C2.01 31.67 1.02 31.34 0 31 C-0.03867188 30.09507812 -0.03867188 30.09507812 -0.078125 29.171875 C-0.40331983 23.89464661 -0.40331983 23.89464661 -3.0625 19.4375 C-3.701875 18.963125 -4.34125 18.48875 -5 18 C-4.01 17.67 -3.02 17.34 -2 17 C0.0647104 13.20558189 0.21872326 9.95190828 0.125 5.6875 C0.10695313 4.61886719 0.08890625 3.55023438 0.0703125 2.44921875 C0.04710938 1.64097656 0.02390625 0.83273438 0 0 Z " fill="#242423" transform="translate(88,210)"/>
<path d="M0 0 C2.31 0 4.62 0 7 0 C7.70126874 5.08419839 7.70126874 5.08419839 7 8 C5.14273415 9.87458301 3.1753843 11.19550578 0.9765625 12.6484375 C-1.68743066 14.47006128 -2.81272666 15.99689685 -4 19 C-4.33501517 21.30833624 -4.56025849 23.58519615 -4.69140625 25.9140625 C-5 28 -5 28 -7 31 C-7.45139459 33.0492094 -7.45139459 33.0492094 -7.625 35.1875 C-7.74875 36.445625 -7.8725 37.70375 -8 39 C-7.01 39 -6.02 39 -5 39 C-5 42.3 -5 45.6 -5 49 C-12.92 49 -20.84 49 -29 49 C-29 47.35 -29 45.7 -29 44 C-23.06 44 -17.12 44 -11 44 C-11 40.37 -11 36.74 -11 33 C-12.32 33 -13.64 33 -15 33 C-15.96380142 25.76144974 -12.67174936 21.11178977 -9 15.0625 C-8.42765625 14.09248047 -7.8553125 13.12246094 -7.265625 12.12304688 C-5.85710522 9.74030092 -4.4351408 7.36677365 -3 5 C-2.01 5 -1.02 5 0 5 C0 3.35 0 1.7 0 0 Z " fill="#222221" transform="translate(90,82)"/>
<path d="M0 0 C2.31 0 4.62 0 7 0 C7 12.87 7 25.74 7 39 C7.99 39 8.98 39 10 39 C10 42.3 10 45.6 10 49 C3.4 49 -3.2 49 -10 49 C-10 47.35 -10 45.7 -10 44 C-5.71 44 -1.42 44 3 44 C3 40.37 3 36.74 3 33 C2.01 33 1.02 33 0 33 C0 22.11 0 11.22 0 0 Z " fill="#1C1D21" transform="translate(239,145)"/>
<path d="M0 0 C2.64 1.32 5.28 2.64 8 4 C8 8.62 8 13.24 8 18 C7.01 18 6.02 18 5 18 C5 21.63 5 25.26 5 29 C6.65 29 8.3 29 10 29 C10 30.98 10 32.96 10 35 C4.39 35 -1.22 35 -7 35 C-7 34.01 -7 33.02 -7 32 C-7.639375 32.495 -8.27875 32.99 -8.9375 33.5 C-13.01975326 35.49947098 -16.53037979 35.90523954 -21 35 C-24.0625 32.5 -24.0625 32.5 -26 30 C-24.453125 29.87625 -24.453125 29.87625 -22.875 29.75 C-18.47024613 28.89746699 -16.51487063 27.65758511 -13 25 C-13 26.32 -13 27.64 -13 29 C-7.72 29 -2.44 29 3 29 C3 25.7 3 22.4 3 19 C2.34 19 1.68 19 1 19 C0.505 9.595 0.505 9.595 0 0 Z " fill="#1E1E23" transform="translate(127,223)"/>
<path d="M0 0 C1.32 0 2.64 0 4 0 C4 1.65 4 3.3 4 5 C4.99 5 5.98 5 7 5 C7 9.62 7 14.24 7 19 C6.01 19 5.02 19 4 19 C4 22.63 4 26.26 4 30 C5.65 30 7.3 30 9 30 C9 31.65 9 33.3 9 35 C3.39 35 -2.22 35 -8 35 C-8.33 34.01 -8.66 33.02 -9 32 C-9.804375 32.66 -10.60875 33.32 -11.4375 34 C-14.86136826 36.25553407 -17.81264566 36.69002837 -21.875 36.5390625 C-25.65148304 35.58105761 -26.94343334 33.18436128 -29 30 C-28.32453125 29.87882812 -27.6490625 29.75765625 -26.953125 29.6328125 C-26.06109375 29.46523437 -25.1690625 29.29765625 -24.25 29.125 C-22.92742187 28.88136719 -22.92742187 28.88136719 -21.578125 28.6328125 C-19.13052256 28.03203736 -17.19400143 27.22002883 -15 26 C-15 27.32 -15 28.64 -15 30 C-9.06 30 -3.12 30 3 30 C3 26.37 3 22.74 3 19 C2.01 19 1.02 19 0 19 C0 12.73 0 6.46 0 0 Z " fill="#1C1D20" transform="translate(164,96)"/>
<path d="M0 0 C4.56092392 2.28046196 5.74458175 3.4891635 8 8 C8.32124049 11.3629864 8.2395064 14.63360448 8 18 C7.34 18 6.68 18 6 18 C6 21.63 6 25.26 6 29 C7.32 29 8.64 29 10 29 C10 30.65 10 32.3 10 34 C4.72 34 -0.56 34 -6 34 C-6 33.01 -6 32.02 -6 31 C-6.804375 31.66 -7.60875 32.32 -8.4375 33 C-11.869912 35.26929609 -14.80600843 35.63370912 -18.875 35.46875 C-22.3060896 34.711892 -23.94214027 32.72168545 -26 30 C-26 29.67 -26 29.34 -26 29 C-25.31292969 28.87882812 -24.62585938 28.75765625 -23.91796875 28.6328125 C-23.01691406 28.46523437 -22.11585938 28.29765625 -21.1875 28.125 C-20.29417969 27.96257812 -19.40085938 27.80015625 -18.48046875 27.6328125 C-15.77272154 27.08811551 -15.77272154 27.08811551 -13 25 C-13 26.32 -13 27.64 -13 29 C-7.39 29 -1.78 29 4 29 C4 25.37 4 21.74 4 18 C3.01 18 2.02 18 1 18 C0.67 12.06 0.34 6.12 0 0 Z " fill="#212122" transform="translate(216,160)"/>
<path d="M0 0 C0.99 0.33 1.98 0.66 3 1 C3 1.66 3 2.32 3 3 C3.99 3 4.98 3 6 3 C6.06058594 4.18078125 6.12117188 5.3615625 6.18359375 6.578125 C6.26802582 8.1354277 6.35267249 9.69271879 6.4375 11.25 C6.47681641 12.02730469 6.51613281 12.80460937 6.55664062 13.60546875 C6.59853516 14.35957031 6.64042969 15.11367187 6.68359375 15.890625 C6.73858032 16.92751465 6.73858032 16.92751465 6.79467773 17.98535156 C6.94595814 20.04152798 6.94595814 20.04152798 7.59838867 22.12744141 C8 24 8 24 6.7421875 26.0703125 C6.12601563 26.74835938 5.50984375 27.42640625 4.875 28.125 C3.97394531 29.14980469 3.97394531 29.14980469 3.0546875 30.1953125 C-1.92324818 34.56756779 -7.32984282 34.46739922 -13.68359375 34.40234375 C-18.55158491 33.81176296 -22.07181566 31.8420972 -26 29 C-26 28.34 -26 27.68 -26 27 C-24.49759766 27.05220703 -24.49759766 27.05220703 -22.96484375 27.10546875 C-11.94877271 27.3945334 -11.94877271 27.3945334 -2.1875 22.6875 C2.09472475 16.60223325 1.62703365 8.91896034 0.5 1.875 C0.2525 0.946875 0.2525 0.946875 0 0 Z " fill="#232323" transform="translate(121,98)"/>
<path d="M0 0 C0.66 0 1.32 0 2 0 C4.12227731 2.18349685 4.95900857 3.45003166 5.1875 6.515625 C5.0946875 7.86914062 5.0946875 7.86914062 5 9.25 C4.87246391 13.07608274 5.06573748 15.84451979 6.5625 19.375 C8 23 8 23 8.0625 25.6875 C5.97933748 30.22144195 1.5568195 33.18689928 -3 35 C-11.86998473 36.04937553 -18.74772708 35.37205402 -26 30 C-26 29.34 -26 28.68 -26 28 C-24.865625 28.05800781 -23.73125 28.11601562 -22.5625 28.17578125 C-11.89515015 28.75409928 -11.89515015 28.75409928 -2.34765625 24.58203125 C1.30692024 20.29187624 1.24652745 15.81625735 1.1875 10.375 C1.18105469 9.06273437 1.17460938 7.75046875 1.16796875 6.3984375 C1.15331437 3.01159237 1.15331437 3.01159237 0 0 Z " fill="#242423" transform="translate(121,160)"/>
<path d="M0 0 C1.65 0 3.3 0 5 0 C7 2 7 2 7.22705078 3.97119141 C7.21657715 4.75671387 7.20610352 5.54223633 7.1953125 6.3515625 C7.18886719 7.20234375 7.18242188 8.053125 7.17578125 8.9296875 C7.15902344 9.81914062 7.14226562 10.70859375 7.125 11.625 C7.11597656 12.5221875 7.10695313 13.419375 7.09765625 14.34375 C7.0740497 16.56276586 7.0411231 18.78125077 7 21 C8.32 21 9.64 21 11 21 C11 22.65 11 24.3 11 26 C2.75 26 -5.5 26 -14 26 C-14 24.35 -14 22.7 -14 21 C-8.06 21 -2.12 21 4 21 C4 17.7 4 14.4 4 11 C2.68 11 1.36 11 0 11 C0 7.37 0 3.74 0 0 Z " fill="#1D1D1F" transform="translate(64,231)"/>
<path d="M0 0 C5.1066823 2.55334115 5.1066823 2.55334115 7 6 C7.29296875 9.234375 7.29296875 9.234375 7.1875 12.75 C7.16042969 13.92046875 7.13335937 15.0909375 7.10546875 16.296875 C7.07066406 17.18890625 7.03585938 18.0809375 7 19 C6.34 19 5.68 19 5 19 C5 22.63 5 26.26 5 30 C6.65 30 8.3 30 10 30 C10 31.65 10 33.3 10 35 C3.4 35 -3.2 35 -10 35 C-10 33.35 -10 31.7 -10 30 C-5.71 30 -1.42 30 3 30 C3 26.7 3 23.4 3 20 C2.34 20 1.68 20 1 20 C0.67 13.4 0.34 6.8 0 0 Z " fill="#272624" transform="translate(171,222)"/>
<path d="M0 0 C4.875 0.875 4.875 0.875 6 2 C6.12669642 4.05955348 6.17584229 6.12408618 6.1875 8.1875 C6.20167969 9.31542969 6.21585938 10.44335938 6.23046875 11.60546875 C5.99598481 15.05913901 5.23587122 17.78087298 4 21 C1.14393962 20.04797987 -0.69938677 19.3273344 -2.7578125 17.0859375 C-5.52326795 14.51319671 -8.07202202 13.61814128 -11.625 12.375 C-17.80555556 10.19444444 -17.80555556 10.19444444 -20 8 C-20 7.01 -20 6.02 -20 5 C-18.02 5 -16.04 5 -14 5 C-13.67 5.99 -13.34 6.98 -13 8 C-8.71 8 -4.42 8 0 8 C0 5.36 0 2.72 0 0 Z " fill="#1F2027" transform="translate(82,146)"/>
<path d="M0 0 C4.70588235 0.70588235 4.70588235 0.70588235 6 2 C6.07244053 4.01964199 6.08377188 6.04167124 6.0625 8.0625 C6.05347656 9.16722656 6.04445312 10.27195313 6.03515625 11.41015625 C6.02355469 12.26480469 6.01195312 13.11945313 6 14 C5.01 14 4.02 14 3 14 C3 17.63 3 21.26 3 25 C4.65 25 6.3 25 8 25 C8 26.65 8 28.3 8 30 C1.4 30 -5.2 30 -12 30 C-12 28.35 -12 26.7 -12 25 C-7.71 25 -3.42 25 1 25 C1 21.7 1 18.4 1 15 C0.34 15 -0.32 15 -1 15 C-1.02685412 12.68756208 -1.04632841 10.3750373 -1.0625 8.0625 C-1.07410156 6.77472656 -1.08570313 5.48695313 -1.09765625 4.16015625 C-1 1 -1 1 0 0 Z " fill="#292827" transform="translate(151,227)"/>
<path d="M0 0 C0.66 0 1.32 0 2 0 C2 1.65 2 3.3 2 5 C3.32 5 4.64 5 6 5 C5.67 6.65 5.34 8.3 5 10 C-4.73077017 11.81037585 -13.90962577 12.63830291 -22.48828125 7.09375 C-23.23658203 6.55234375 -23.23658203 6.55234375 -24 6 C-24 5.34 -24 4.68 -24 4 C-16.08 4 -8.16 4 0 4 C0 2.68 0 1.36 0 0 Z " fill="#252525" transform="translate(159,184)"/>
<path d="M0 0 C0.33 0 0.66 0 1 0 C1 2.97 1 5.94 1 9 C2.65 9 4.3 9 6 9 C6 12.3 6 15.6 6 19 C-1.59 19 -9.18 19 -17 19 C-17 17.35 -17 15.7 -17 14 C-11.39 14 -5.78 14 0 14 C0 9.38 0 4.76 0 0 Z " fill="#1D1D20" transform="translate(192,112)"/>
<path d="M0 0 C1.98 0 3.96 0 6 0 C6.28322525 3.70710379 6.45593849 7.30305294 6 11 C3.625 12.875 3.625 12.875 1 14 C-0.34689915 16.57099402 -0.34689915 16.57099402 -1 19 C-4.33717549 17.6190998 -6.22301036 16.1798762 -8 13 C-7.79185484 9.66967741 -6.2900636 7.37488077 -4 5 C-2.68 5 -1.36 5 0 5 C0 3.35 0 1.7 0 0 Z " fill="#202022" transform="translate(217,222)"/>
<path d="M0 0 C0.66 0 1.32 0 2 0 C2.85518324 1.31942557 3.68304773 2.65656738 4.5 4 C4.9640625 4.7425 5.428125 5.485 5.90625 6.25 C7 9 7 9 7 17 C1.06 17 -4.88 17 -11 17 C-11 15.35 -11 13.7 -11 12 C-7.37 12 -3.74 12 0 12 C0 8.04 0 4.08 0 0 Z " fill="#202022" transform="translate(194,240)"/>
<path d="M0 0 C0.22786458 1.98567708 0.45572917 3.97135417 0.68359375 5.95703125 C0.97170735 8.19396393 0.97170735 8.19396393 2 11 C2.66 11 3.32 11 4 11 C4 12.98 4 14.96 4 17 C-2.6 17 -9.2 17 -16 17 C-16 15.35 -16 13.7 -16 12 C-11.71 12 -7.42 12 -3 12 C-3 8.7 -3 5.4 -3 2 C-3.66 1.67 -4.32 1.34 -5 1 C-1.125 0 -1.125 0 0 0 Z " fill="#2A2925" transform="translate(94,240)"/>
<path d="M0 0 C0.8971875 0.9590625 0.8971875 0.9590625 1.8125 1.9375 C3.90810337 4.20310389 3.90810337 4.20310389 7 5 C7 8.3 7 11.6 7 15 C1.72 15 -3.56 15 -9 15 C-9.66 13.35 -10.32 11.7 -11 10 C-7.37 10 -3.74 10 0 10 C0 6.7 0 3.4 0 0 Z " fill="#212121" transform="translate(217,242)"/>
<path d="M0 0 C4.29 0 8.58 0 13 0 C13 3.3 13 6.6 13 10 C8.71 10 4.42 10 0 10 C0 6.7 0 3.4 0 0 Z " fill="#FCEBA2" transform="translate(164,140)"/>
<path d="M0 0 C3.96 1.98 3.96 1.98 8 4 C8 8.62 8 13.24 8 18 C7.01 18.33 6.02 18.66 5 19 C4.67 22.3 4.34 25.6 4 29 C3.67 29 3.34 29 3 29 C3 25.7 3 22.4 3 19 C2.34 19 1.68 19 1 19 C0.67 12.73 0.34 6.46 0 0 Z " fill="#24252E" transform="translate(127,223)"/>
<path d="M0 0 C0.66 1.32 1.32 2.64 2 4 C0.78763672 4.16435547 0.78763672 4.16435547 -0.44921875 4.33203125 C-1.51785156 4.49058594 -2.58648437 4.64914063 -3.6875 4.8125 C-4.74324219 4.96332031 -5.79898438 5.11414063 -6.88671875 5.26953125 C-10.13928139 6.03267957 -12.24834922 7.1390028 -15 9 C-15.99 9.66 -16.98 10.32 -18 11 C-19.65 9.68 -21.3 8.36 -23 7 C-16.45396126 -0.53786279 -9.35246515 -0.3044202 0 0 Z " fill="#091572" transform="translate(112,227)"/>
<path d="M0 0 C2.31 0 4.62 0 7 0 C7.86074076 12.71983569 7.86074076 12.71983569 4.625 17.3125 C3.75875 18.199375 2.8925 19.08625 2 20 C1.34 20 0.68 20 0 20 C0 13.4 0 6.8 0 0 Z " fill="#1D1E25" transform="translate(194,208)"/>
<path d="M0 0 C3 1.5 3 1.5 6 3 C6 4.98 6 6.96 6 9 C-0.6 9 -7.2 9 -14 9 C-14 7.35 -14 5.7 -14 4 C-9.38 4 -4.76 4 0 4 C0 2.68 0 1.36 0 0 Z " fill="#1E1E1F" transform="translate(182,185)"/>
<path d="M0 0 C1.32 0 2.64 0 4 0 C4 1.65 4 3.3 4 5 C4.99 5 5.98 5 7 5 C7 9.29 7 13.58 7 18 C5.35 18.33 3.7 18.66 2 19 C0 17 0 17 -0.1953125 13.0859375 C-0.18200376 11.51550649 -0.15813602 9.94513779 -0.125 8.375 C-0.11597656 7.57320313 -0.10695312 6.77140625 -0.09765625 5.9453125 C-0.07406223 3.96341477 -0.03819065 1.98167019 0 0 Z " fill="#1E1F22" transform="translate(142,96)"/>
<path d="M0 0 C0.33 0 0.66 0 1 0 C1 3.3 1 6.6 1 10 C2.65 10 4.3 10 6 10 C6 11.65 6 13.3 6 15 C-0.6 15 -7.2 15 -14 15 C-14 13.35 -14 11.7 -14 10 C-9.38 10 -4.76 10 0 10 C0 6.7 0 3.4 0 0 Z " fill="#1D1D1E" transform="translate(175,242)"/>
<path d="M0 0 C1.4540625 0.0309375 1.4540625 0.0309375 2.9375 0.0625 C3.2675 1.7125 3.5975 3.3625 3.9375 5.0625 C6.5775 5.0625 9.2175 5.0625 11.9375 5.0625 C11.9375 6.0525 11.9375 7.0425 11.9375 8.0625 C11.2775 8.0625 10.6175 8.0625 9.9375 8.0625 C9.9375 10.0425 9.9375 12.0225 9.9375 14.0625 C9.2775 14.0625 8.6175 14.0625 7.9375 14.0625 C7.9375 15.3825 7.9375 16.7025 7.9375 18.0625 C7.2775 17.7325 6.6175 17.4025 5.9375 17.0625 C6.2675 14.0925 6.5975 11.1225 6.9375 8.0625 C3.3075 8.0625 -0.3225 8.0625 -4.0625 8.0625 C-4.10491723 5.72955225 -4.10342937 3.39547433 -4.0625 1.0625 C-3.0625 0.0625 -3.0625 0.0625 0 0 Z " fill="#131E6F" transform="translate(151.0625,169.9375)"/>
<path d="M0 0 C0.33 1.32 0.66 2.64 1 4 C2.98 4 4.96 4 7 4 C6.04137832 6.3965542 5.43378821 7.73464582 3.19921875 9.1015625 C-0.51631773 10.61945484 -4.07547459 10.83797695 -8 10 C-10.2812868 8.19179111 -11.39285211 6.48848705 -13 4 C-12.31292969 3.87882812 -11.62585938 3.75765625 -10.91796875 3.6328125 C-9.56638672 3.38144531 -9.56638672 3.38144531 -8.1875 3.125 C-7.29417969 2.96257812 -6.40085938 2.80015625 -5.48046875 2.6328125 C-2.77272154 2.08811551 -2.77272154 2.08811551 0 0 Z " fill="#232324" transform="translate(148,122)"/>
<path d="M0 0 C0.05391993 1.79133978 0.09275571 3.58313899 0.125 5.375 C0.14820312 6.37273437 0.17140625 7.37046875 0.1953125 8.3984375 C0 11 0 11 -2 13 C-4.625 13.125 -4.625 13.125 -7 13 C-8.32229189 10.35541621 -8.09677194 8.32238699 -8.0625 5.375 C-8.05347656 4.37210937 -8.04445313 3.36921875 -8.03515625 2.3359375 C-8.02355469 1.56507812 -8.01195313 0.79421875 -8 0 C-5.13822943 -1.43088528 -3.06624227 -0.59991697 0 0 Z " fill="#302F2B" transform="translate(108,102)"/>
<path d="M0 0 C0 1.65 0 3.3 0 5 C-6.6 5 -13.2 5 -20 5 C-20 3.35 -20 1.7 -20 0 C-17.79245484 -0.19656224 -15.58390461 -0.38185459 -13.375 -0.5625 C-12.14523438 -0.66691406 -10.91546875 -0.77132812 -9.6484375 -0.87890625 C-6.24372538 -0.99191061 -3.32441602 -0.69045563 0 0 Z " fill="#1D1D1E" transform="translate(159,252)"/>
<path d="M0 0 C2.5 0.125 2.5 0.125 3.5 1.125 C3.59873816 3.12299572 3.62971799 5.12457158 3.625 7.125 C3.62757812 8.218125 3.63015625 9.31125 3.6328125 10.4375 C3.5 13.125 3.5 13.125 2.5 14.125 C0 14.25 0 14.25 -2.5 14.125 C-3.5 13.125 -3.5 13.125 -3.6328125 10.4375 C-3.63023438 9.344375 -3.62765625 8.25125 -3.625 7.125 C-3.62757812 6.031875 -3.63015625 4.93875 -3.6328125 3.8125 C-3.45293603 0.1726468 -3.45293603 0.1726468 0 0 Z " fill="#222223" transform="translate(104.5,163.875)"/>
<path d="M0 0 C2.31 0 4.62 0 7 0 C7 3.63 7 7.26 7 11 C5.35 11 3.7 11 2 11 C2 10.01 2 9.02 2 8 C-0.64 8 -3.28 8 -6 8 C-6 7.01 -6 6.02 -6 5 C-4.02 5 -2.04 5 0 5 C0 3.35 0 1.7 0 0 Z " fill="#1B1C23" transform="translate(177,145)"/>
<path d="M0 0 C1.65 0 3.3 0 5 0 C7 2 7 2 7.04345703 3.97119141 C6.94919434 4.75671387 6.85493164 5.54223633 6.7578125 6.3515625 C6.66113281 7.20234375 6.56445312 8.053125 6.46484375 8.9296875 C6.29662109 10.26386719 6.29662109 10.26386719 6.125 11.625 C6.02058594 12.5221875 5.91617188 13.419375 5.80859375 14.34375 C5.54879548 16.5638443 5.27888059 18.78223534 5 21 C4.67 21 4.34 21 4 21 C4 17.7 4 14.4 4 11 C2.68 11 1.36 11 0 11 C0 7.37 0 3.74 0 0 Z " fill="#2D2B26" transform="translate(64,231)"/>
<path d="M0 0 C1.65 0 3.3 0 5 0 C7 2 7 2 7.1875 5.5625 C7 9 7 9 6 10 C4.00041636 10.04080783 1.99954746 10.04254356 0 10 C0 6.7 0 3.4 0 0 Z " fill="#212121" transform="translate(64,213)"/>
<path d="M0 0 C1.32 0 2.64 0 4 0 C4 1.32 4 2.64 4 4 C4.66 4 5.32 4 6 4 C5.39009109 7.55780196 4.4216319 10.6828589 3 14 C2.34 14 1.68 14 1 14 C0.01 11.03 -0.98 8.06 -2 5 C-1.34 5 -0.68 5 0 5 C0 3.35 0 1.7 0 0 Z " fill="#34322A" transform="translate(67,82)"/>
<path d="M0 0 C1.62992692 0.39695637 3.25392235 0.81832493 4.875 1.25 C6.23238281 1.59804687 6.23238281 1.59804687 7.6171875 1.953125 C10 3 10 3 11.3203125 5.109375 C11.54460937 5.73328125 11.76890625 6.3571875 12 7 C11 8 11 8 7.9375 8.0625 C6.968125 8.041875 5.99875 8.02125 5 8 C4.67 7.01 4.34 6.02 4 5 C-0.62 5 -5.24 5 -10 5 C-10 4.67 -10 4.34 -10 4 C-4.06 3.505 -4.06 3.505 2 3 C1.34 2.67 0.68 2.34 0 2 C0 1.34 0 0.68 0 0 Z " fill="#2C2C2B" transform="translate(53,169)"/>
<path d="M0 0 C3.63 0 7.26 0 11 0 C11.66 1.32 12.32 2.64 13 4 C7.06 4.495 7.06 4.495 1 5 C0.67 3.35 0.34 1.7 0 0 Z " fill="#33322B" transform="translate(101,227)"/>
<path d="M0 0 C3.3 0 6.6 0 10 0 C10.66 1.32 11.32 2.64 12 4 C6.06 4.495 6.06 4.495 0 5 C0 3.35 0 1.7 0 0 Z " fill="#282826" transform="translate(191,164)"/>
<path d="M0 0 C3.63 0 7.26 0 11 0 C10.34 2.31 9.68 4.62 9 7 C4.58110387 5.64978174 2.65654657 3.73884332 0 0 Z " fill="#0A1674" transform="translate(77,160)"/>
<path d="M0 0 C0 0.66 0 1.32 0 2 C-0.99 2 -1.98 2 -3 2 C-3 2.66 -3 3.32 -3 4 C-6.40351338 6.03219488 -9.3232927 6.36891039 -13.25 6.625 C-14.32765625 6.69976562 -15.4053125 6.77453125 -16.515625 6.8515625 C-17.33546875 6.90054687 -18.1553125 6.94953125 -19 7 C-19.33 6.34 -19.66 5.68 -20 5 C-19.28714844 4.89042969 -18.57429687 4.78085937 -17.83984375 4.66796875 C-12.20846317 3.73572136 -5.37527498 0 0 0 Z " fill="#1F1651" transform="translate(580,288)"/>
<path d="M0 0 C1.2065625 0.0309375 1.2065625 0.0309375 2.4375 0.0625 C2.25 2.375 2.25 2.375 1.4375 5.0625 C-1.125 6.875 -1.125 6.875 -3.5625 8.0625 C-3.60491723 5.72955225 -3.60342937 3.39547433 -3.5625 1.0625 C-2.5625 0.0625 -2.5625 0.0625 0 0 Z " fill="#081575" transform="translate(188.5625,164.9375)"/>
<path d="M0 0 C2.475 0.99 2.475 0.99 5 2 C4.67 5.3 4.34 8.6 4 12 C3.67 12 3.34 12 3 12 C3 10.02 3 8.04 3 6 C2.01 6 1.02 6 0 6 C0 4.02 0 2.04 0 0 Z " fill="#1D1D1F" transform="translate(89,235)"/>
<path d="M0 0 C2.37570543 -0.0816082 4.74855841 -0.14077222 7.125 -0.1875 C7.79015625 -0.21263672 8.4553125 -0.23777344 9.140625 -0.26367188 C13.86902292 -0.33320714 16.95121479 0.59721625 21 3 C21 3.33 21 3.66 21 4 C19.02 4 17.04 4 15 4 C14.67 3.01 14.34 2.02 14 1 C9.38 1 4.76 1 0 1 C0 0.67 0 0.34 0 0 Z " fill="#32397A" transform="translate(43,173)"/>
<path d="M0 0 C1.32 0 2.64 0 4 0 C3.67 1.65 3.34 3.3 3 5 C1.68 5.33 0.36 5.66 -1 6 C-1.625 4.125 -1.625 4.125 -2 2 C-1.34 1.34 -0.68 0.68 0 0 Z " fill="#37352E" transform="translate(110,237)"/>
<path d="M0 0 C0.66 0 1.32 0 2 0 C4.29648649 2.5614657 5 3.47967572 5 7 C4.34 7 3.68 7 3 7 C3 9.97 3 12.94 3 16 C2.67 16 2.34 16 2 16 C1.93941406 15.09636719 1.87882812 14.19273437 1.81640625 13.26171875 C1.73261719 12.08222656 1.64882812 10.90273437 1.5625 9.6875 C1.48128906 8.51574219 1.40007812 7.34398437 1.31640625 6.13671875 C1.1132629 2.97409042 1.1132629 2.97409042 0 0 Z " fill="#46443B" transform="translate(121,160)"/>
<path d="M0 0 C1.32 0 2.64 0 4 0 C3.67 1.65 3.34 3.3 3 5 C1.35 5 -0.3 5 -2 5 C-1.125 1.125 -1.125 1.125 0 0 Z " fill="#2A2A27" transform="translate(199,174)"/>
<path d="M0 0 C0 0.66 0 1.32 0 2 C-0.99 2 -1.98 2 -3 2 C-3 2.66 -3 3.32 -3 4 C-4.8125 5.0625 -4.8125 5.0625 -7 6 C-7.99 5.67 -8.98 5.34 -10 5 C-7.31217681 1.88778367 -4.19734673 0 0 0 Z " fill="#131259" transform="translate(580,288)"/>
<path d="M0 0 C1 2 1 2 0.3125 4.5625 C-0.120625 5.366875 -0.55375 6.17125 -1 7 C-2.32 7.33 -3.64 7.66 -5 8 C-3.35 5.36 -1.7 2.72 0 0 Z " fill="#1E1659" transform="translate(601,266)"/>
</svg>
